# xmcd
#
# Track frame offsets:
#	150
#	21045
#	39853
#	58675
#	76798
#	96426
#	114044
#	135937
#	155925
#	177282
#	194533
#	220266
#
# Disc length: 3183 seconds
#
# Revision: 4294901762
# Processed by: cddbd v1.5.2PL0 Copyright (c) Steve Scherf et al.
# Submitted via: EZCDAudioConverter 8.0.2.1
#
DISCID=970c6d0c
DTITLE=Hồng Ngọc - Vol 04. Em về
DYEAR=2005
DGENRE=
TTITLE0=Hồng Ngọc - Nhớ anh đêm nay
TTITLE1=Hồng Ngọc - Em về
TTITLE2=Hồng Ngọc - Đừng mãi cách xa
TTITLE3=Hồng Ngọc - Quên đi ưu phiền
TTITLE4=Hồng Ngọc - Tình em
TTITLE5=Hồng Ngọc - Anh và em
TTITLE6=Hồng Ngọc - Mơ những ngày nắng lên
TTITLE7=Hồng Ngọc - Hãy vui lên
TTITLE8=Hồng Ngọc - Xa nhau mùa đông
TTITLE9=Hồng Ngọc - Ảo ảnh xa mạc
TTITLE10=Hồng Ngọc - Mãi là bồ câu trắng
TTITLE11=Hồng Ngọc, Đàm Vĩnh Hưng - Như đã dấu yêu
EXTD=
EXTT0=
EXTT1=
EXTT2=
EXTT3=
EXTT4=
EXTT5=
EXTT6=
EXTT7=
EXTT8=
EXTT9=
EXTT10=
EXTT11=
PLAYORDER=
